<svg width="128" height="128" viewBox="0 0 128 128" fill="none" xmlns="http://www.w3.org/2000/svg">
  <rect width="128" height="128" rx="28" fill="url(#bgMenu)"/>
  <g filter="url(#shMenu)">
    <!-- planche -->
    <rect x="30" y="74" width="68" height="14" rx="4" fill="#C8862F"/>
    <rect x="30" y="74" width="68" height="14" rx="4" stroke="#E8A94B" stroke-width="2"/>
    <!-- lame de scie -->
    <path d="M44 36L86 44L84 56L42 50L44 36Z" fill="#E8EDF2"/>
    <path d="M42 50L84 56L82 62L40 56L42 50Z" fill="#B9C2CC"/>
    <path d="M43 55L48 60M50 56L55 61M57 57L62 62M64 58L69 63M71 59L76 64" stroke="#8B97A3" stroke-width="2" stroke-linecap="round"/>
    <!-- manche -->
    <rect x="80" y="40" width="18" height="14" rx="6" fill="#FFB066"/>
    <rect x="80" y="40" width="18" height="14" rx="6" stroke="#FFCB99" stroke-width="2"/>
  </g>
  <circle cx="98" cy="28" r="8" fill="#FFFFFF" fill-opacity="0.15"/>
  <defs>
    <linearGradient id="bgMenu" x1="12" y1="10" x2="111" y2="118" gradientUnits="userSpaceOnUse">
      <stop stop-color="#2C1808"/>
      <stop offset="1" stop-color="#B5651D"/>
    </linearGradient>
    <filter id="shMenu" x="22" y="28" width="86" height="74" filterUnits="userSpaceOnUse" color-interpolation-filters="sRGB">
      <feFlood flood-opacity="0" result="bg"/>
      <feColorMatrix in="SourceAlpha" type="matrix" values="0 0 0 0 0 0 0 0 0 0 0 0 0 0 0 0 0 0 127 0" result="a"/>
      <feOffset dy="6"/>
      <feGaussianBlur stdDeviation="4"/>
      <feComposite in2="a" operator="out"/>
      <feColorMatrix type="matrix" values="0 0 0 0 0.17 0 0 0 0 0.09 0 0 0 0 0.03 0 0 0 0.4 0"/>
      <feBlend mode="normal" in2="bg" result="e1"/>
      <feBlend mode="normal" in="SourceGraphic" in2="e1" result="shape"/>
    </filter>
  </defs>
</svg>
